<svg width="98" height="98" viewBox="0 0 98 98" fill="none" xmlns="http://www.w3.org/2000/svg">
<mask id="mask0_11038_192" style="mask-type:alpha" maskUnits="userSpaceOnUse" x="0" y="0" width="98" height="98">
<rect width="98" height="98" fill="#D9D9D9"/>
</mask>
<g mask="url(#mask0_11038_192)">
<path d="M49.0001 4.0835L85.9542 26.1335C87.1792 26.8821 88.132 27.9029 88.8126 29.196C89.4931 30.4891 89.8334 31.8502 89.8334 33.2793V77.5835C89.8334 79.8293 89.0338 81.7519 87.4345 83.3512C85.8351 84.9505 83.9126 85.7502 81.6667 85.7502H16.3334C14.0876 85.7502 12.165 84.9505 10.5657 83.3512C8.9664 81.7519 8.16675 79.8293 8.16675 77.5835V33.2793C8.16675 31.8502 8.50703 30.4891 9.18758 29.196C9.86814 27.9029 10.8209 26.8821 12.0459 26.1335L49.0001 4.0835ZM49.0001 51.6543L80.8501 32.6668L49.0001 13.6793L17.1501 32.6668L49.0001 51.6543ZM49.0001 61.2502L16.3334 41.6502V77.5835H81.6667V41.6502L49.0001 61.2502Z" fill="#1C1B1F"/>
</g>
</svg>
